<svg version="1.1" xmlns="http://www.w3.org/2000/svg" style="display: block;" viewBox="0 0 2048 2048" width="1024" height="1024" preserveAspectRatio="none">
<path transform="translate(0,0)" fill="rgb(0,0,0)" d="M 67.6523 166.301 C 90.7607 166.381 143.456 177.884 166.686 183.221 C 242.549 200.165 317.469 221.084 391.137 245.891 C 692.307 351.431 971.37 511.741 1214.26 718.739 C 1281.06 775.828 1345.27 835.88 1406.7 898.716 C 1506.51 999.977 1581.41 1084.41 1656.2 1206.07 C 1675.89 1237.43 1693.96 1269.78 1710.34 1302.98 C 1771.7 1429.15 1818.22 1576.01 1770.23 1714.49 C 1741.49 1798.51 1680.31 1867.54 1600.35 1906.17 C 1492.72 1958.32 1357.43 1955.28 1245.23 1918.13 C 1094.92 1868.35 947.628 1727.37 879.149 1585.38 C 875.409 1577.11 858.42 1542.34 866.537 1537.46 C 877.436 1538.93 885.401 1559.92 890.327 1570.11 C 920.32 1632.17 956.972 1679.82 1005.48 1728.78 C 1035.42 1758.77 1065.73 1790.92 1099.59 1816.47 C 1254.02 1933.34 1504.42 1966.95 1653.13 1822.13 C 1780.02 1698.56 1756.54 1524 1679.86 1381.5 C 1617.98 1266.48 1540.26 1165.74 1450.76 1071.09 C 1392.03 1008.98 1329.82 950.327 1266.78 893.08 C 1112.66 751.588 947.716 622.356 773.458 506.564 C 693.394 454.285 610.827 405.941 526.053 361.705 C 438.193 315.245 347.328 274.708 254.063 240.363 C 222.76 228.882 191.15 218.254 159.269 208.49 C 132.369 200.545 105.02 193.814 78.524 184.544 C 73.607 182.824 65.8859 179.354 62.2893 175.459 C 60.1845 173.18 60.7661 172.034 61.1376 169.686 C 63.3399 167.142 64.4093 167.168 67.6523 166.301 z"/>
<path transform="translate(0,0)" fill="rgb(0,0,0)" d="M 865.39 1092.58 L 869.066 1092.77 C 875.136 1096.97 870.908 1121.77 871.031 1129.86 C 873.547 1296.26 999.469 1436.07 1134.34 1518.71 C 1159.09 1533.87 1190.14 1545.14 1217.36 1553.51 C 1197.87 1502.83 1191.96 1470.31 1196.77 1416.29 C 1125.24 1406.9 1084.99 1388 1029.26 1344.75 C 953.709 1286.13 933.095 1168.15 1052.84 1158.44 C 1129.06 1152.26 1215.94 1212.46 1270.24 1261.52 C 1324.81 1313.63 1385.78 1391.53 1392.2 1469.1 C 1398.44 1544.54 1326.94 1574.7 1263.53 1576.07 C 1305.31 1636.52 1342.19 1676.22 1400.59 1720.07 C 1443.66 1749.12 1492.1 1774.51 1545.63 1775.4 C 1588.84 1776.11 1635.54 1750.04 1633.04 1701.4 C 1629.46 1631.53 1572.68 1567.07 1519.29 1526.11 C 1504.36 1514.66 1487.48 1505.41 1473.19 1493.26 C 1471.43 1491.77 1472.07 1489.77 1472.33 1487.86 C 1478.23 1483.22 1495.46 1496.64 1500.9 1500.25 C 1557.47 1538.36 1607.15 1584.38 1634.29 1648.39 C 1686.62 1771.81 1576.89 1813.65 1474.02 1783.73 C 1359.03 1750.28 1282.54 1674.56 1225.93 1573.32 C 1079.43 1547.27 940.148 1434.84 884.443 1296.7 C 863.226 1243.13 854.755 1185.36 859.7 1127.96 C 860.472 1117.81 861.584 1101.5 865.39 1092.58 z M 1196.97 1404.77 C 1201.24 1392.09 1204.75 1381.35 1217.57 1374.66 C 1229.14 1368.63 1247.25 1371.77 1252.15 1384.99 C 1253.76 1389.29 1253.54 1394.07 1251.54 1398.21 C 1244.82 1412.11 1223.09 1414.82 1209.41 1416.35 C 1208.99 1463.99 1219.73 1505.79 1245.44 1546.54 C 1248.63 1551.98 1251.11 1555.62 1254.77 1560.75 C 1290.17 1561.13 1327.85 1555.71 1354.85 1530.14 C 1369.98 1515.65 1379.77 1494.04 1379.21 1472.84 C 1377.34 1402.69 1320.56 1330.03 1273.78 1282.1 C 1229.2 1236.43 1129.73 1167.54 1064.57 1173.46 C 1042.62 1175.06 1021.02 1179.82 1005.66 1197.09 C 995.197 1208.88 990.047 1224.46 991.426 1240.17 C 994.521 1276.85 1024.94 1318.73 1052.88 1340.85 C 1096.19 1375.13 1141.29 1400.21 1196.97 1404.77 z"/>
<path transform="translate(0,0)" fill="rgb(0,0,0)" d="M 456.734 103.183 C 497.056 100.655 623.581 144.759 664.139 159.809 C 894.684 245.468 1110.12 367.277 1302.38 520.665 C 1374.28 579.673 1442.15 643.427 1505.54 711.501 C 1608.96 823.932 1697.49 949.192 1768.96 1084.2 C 1776.79 1098.79 1784.88 1113.94 1791.44 1129.11 C 1795.81 1139.21 1807.44 1162.81 1797.56 1171.55 C 1793.72 1172.51 1793.35 1172.19 1789.38 1171.05 C 1779.41 1161.51 1765.13 1133.55 1757.33 1120.64 C 1745.71 1101.54 1733.71 1082.7 1721.31 1064.1 C 1687.49 1014.27 1651.96 969.812 1613 923.964 C 1560.94 863.315 1505.68 805.479 1447.47 750.702 C 1255.12 566.949 1039.14 409.654 805.23 282.974 C 736.823 246.786 662.748 209.879 591.006 180.457 C 561.97 168.791 532.778 157.516 503.438 146.635 C 492.962 142.752 405.374 116.074 456.734 103.183 z"/>
<path transform="translate(0,0)" fill="rgb(0,0,0)" d="M 181.774 317.11 C 204.917 316.821 232.117 324.546 254.638 330.267 C 309.32 344.159 359.673 361.352 411.485 383.579 C 456.654 403.292 500.912 425.03 544.123 448.729 C 705.02 536.649 786.557 624.648 888.667 776.716 C 941.343 854.873 997.7 935.511 1071.42 994.418 C 1152.55 1059.25 1236.67 1105.38 1338.44 1126.62 C 1347.16 1128.44 1372.09 1131.51 1372.81 1141.16 C 1370.72 1144.75 1371.43 1143.61 1367.46 1145.97 C 1352.54 1146.46 1337.21 1143.78 1322.44 1141.75 C 1269.86 1134.53 1221.38 1121.54 1170.96 1105.97 C 1033.92 1064.34 917.316 982.742 824.654 874.294 C 751.018 789.419 696.071 689.017 624.8 602.683 C 562.76 527.53 466.662 468.192 381.142 423.538 C 361.801 413.299 342.157 403.641 322.237 394.578 C 298.633 383.847 188.243 339.278 178.172 328.64 C 176.203 326.56 175.957 325.237 175.854 322.446 C 177.433 319.125 178.555 318.888 181.774 317.11 z"/>
<path transform="translate(0,0)" fill="rgb(0,0,0)" d="M 1981.91 1488.98 C 1985.24 1489.34 1987.99 1489.63 1990.15 1492.73 C 1998.27 1504.38 1995.39 1544.88 1994.05 1558.5 C 1984.71 1653.45 1945.36 1741.44 1891.78 1819.48 C 1881.59 1834.32 1866.32 1855.79 1852.95 1867.99 C 1849.29 1871.34 1846.86 1870.89 1842.78 1870.27 C 1841.2 1858.85 1859.77 1835.69 1866.44 1824.65 C 1880.37 1801.62 1891.59 1777.05 1899.88 1751.45 C 1912.02 1714.65 1919.97 1669.93 1918.54 1631.27 C 1917.74 1610.89 1915.3 1590.62 1911.23 1570.64 C 1908.7 1558.58 1900.91 1532.56 1902.63 1519.98 C 1903.59 1512.96 1928.99 1515.85 1936.44 1514.15 C 1954.5 1510.01 1964.71 1494.78 1981.91 1488.98 z"/>
</svg>